<?xml version="1.0" encoding="utf-8"?>
<!-- Generator: Adobe Illustrator 21.1.0, SVG Export Plug-In . SVG Version: 6.00 Build 0)  -->
<svg version="1.1" id="microsoft_wordmark" xmlns="http://www.w3.org/2000/svg" xmlns:xlink="http://www.w3.org/1999/xlink" x="0px"
	 y="0px" viewBox="0 0 226 48" style="enable-background:new 0 0 226 48;" xml:space="preserve">
<style type="text/css">
	.st0{fill:#FFFFFF;}
	.st1{fill:#00A4EF;}
	.st2{fill:#FFB900;}
	.st3{fill:#7FBA00;}
	.st4{fill:#F25022;}
</style>
<path id="microsoft" class="st0" d="M93.6,9.6v28.8h-5V15.8h-0.1l-8.9,22.6h-3.3l-9.1-22.6h-0.1v22.6h-4.6V9.6h7.2l8.3,21.3h0.1
	l8.7-21.3H93.6L93.6,9.6z M97.7,11.8c0-0.8,0.3-1.5,0.9-2c0.6-0.5,1.3-0.8,2.1-0.8c0.9,0,1.6,0.3,2.1,0.9c0.5,0.5,0.9,1.2,0.9,2
	s-0.3,1.5-0.9,2c-0.6,0.5-1.3,0.8-2.1,0.8c-0.9,0-1.5-0.3-2.1-0.8C98.1,13.2,97.7,12.5,97.7,11.8z M103.1,17.7v20.7h-4.9V17.7H103.1
	z M117.9,34.9c0.7,0,1.5-0.2,2.4-0.5c0.9-0.3,1.7-0.8,2.4-1.3v4.5c-0.8,0.5-1.7,0.8-2.7,1c-1,0.2-2.1,0.3-3.3,0.3
	c-3.1,0-5.5-0.9-7.4-2.9c-1.9-1.9-2.9-4.4-2.9-7.3c0-3.3,1-6.1,2.9-8.2c1.9-2.1,4.7-3.2,8.3-3.2c0.9,0,1.8,0.1,2.7,0.3
	c0.9,0.3,1.7,0.5,2.2,0.8v4.7c-0.7-0.5-1.5-1-2.3-1.3c-0.8-0.3-1.6-0.5-2.4-0.5c-1.9,0-3.5,0.6-4.7,1.9c-1.2,1.3-1.8,2.9-1.8,5.1
	c0,2.1,0.5,3.7,1.7,4.9C114.4,34.3,115.9,34.9,117.9,34.9z M136.5,17.4c0.4,0,0.7,0,1.1,0.1c0.3,0.1,0.6,0.1,0.8,0.2v4.9
	c-0.3-0.2-0.6-0.3-1.1-0.5c-0.5-0.2-1.1-0.3-1.8-0.3c-1.2,0-2.2,0.5-3,1.5c-0.8,1-1.3,2.5-1.3,4.7v10.4h-4.9V17.7h4.9V21h0.1
	c0.5-1.1,1.1-2,2-2.7C134.1,17.7,135.2,17.4,136.5,17.4z M138.6,28.4c0-3.4,0.9-6.1,2.9-8.1c1.9-2,4.6-3,8.1-3
	c3.2,0,5.7,0.9,7.5,2.9c1.8,1.9,2.7,4.5,2.7,7.8c0,3.3-0.9,6-2.9,8c-1.9,2-4.5,3-7.9,3c-3.2,0-5.7-0.9-7.6-2.8
	C139.5,34.2,138.6,31.6,138.6,28.4z M143.7,28.2c0,2.1,0.5,3.8,1.5,4.9c1,1.1,2.4,1.7,4.2,1.7c1.8,0,3.1-0.6,4.1-1.7
	c0.9-1.1,1.4-2.8,1.4-5.1c0-2.2-0.5-3.9-1.5-5c-0.9-1.1-2.3-1.7-4-1.7c-1.8,0-3.1,0.6-4.1,1.8C144.1,24.3,143.7,26,143.7,28.2z
	 M167,23.2c0,0.7,0.2,1.3,0.7,1.7c0.5,0.4,1.4,0.9,2.9,1.5c1.9,0.8,3.3,1.7,4.1,2.6c0.8,1,1.2,2.1,1.2,3.5c0,1.9-0.7,3.5-2.3,4.7
	c-1.5,1.2-3.5,1.8-6.1,1.8c-0.9,0-1.8-0.1-2.9-0.3c-1.1-0.2-1.9-0.5-2.7-0.8V33c0.9,0.6,1.9,1.1,2.9,1.5c1,0.3,1.9,0.5,2.8,0.5
	c1.1,0,1.9-0.1,2.4-0.5c0.5-0.3,0.8-0.8,0.8-1.5c0-0.7-0.3-1.3-0.8-1.7c-0.5-0.5-1.6-1-3.1-1.6c-1.8-0.7-3.1-1.6-3.8-2.5
	s-1.1-2.1-1.1-3.6c0-1.9,0.7-3.4,2.2-4.6c1.5-1.2,3.4-1.8,5.7-1.8c0.7,0,1.5,0.1,2.4,0.3c0.9,0.1,1.7,0.4,2.3,0.6v4.6
	c-0.7-0.4-1.4-0.8-2.3-1.1c-0.9-0.3-1.7-0.5-2.5-0.5c-0.9,0-1.7,0.2-2.1,0.5C167.3,22.1,167,22.5,167,23.2z M177.9,28.4
	c0-3.4,0.9-6.1,2.9-8.1s4.6-3,8.1-3c3.2,0,5.7,0.9,7.5,2.9c1.8,1.9,2.7,4.5,2.7,7.8c0,3.3-0.9,6-2.9,8c-1.9,2-4.5,3-7.9,3
	c-3.2,0-5.7-0.9-7.6-2.8C178.9,34.2,177.9,31.6,177.9,28.4z M183,28.2c0,2.1,0.5,3.8,1.5,4.9c1,1.1,2.4,1.7,4.2,1.7
	c1.8,0,3.1-0.6,4.1-1.7c0.9-1.1,1.4-2.8,1.4-5.1c0-2.2-0.5-3.9-1.5-5c-0.9-1.1-2.3-1.7-4-1.7c-1.8,0-3.1,0.6-4.1,1.8
	C183.5,24.3,183,26,183,28.2z M215.3,21.7H208v16.7h-4.9V21.7h-3.5v-4h3.5v-2.9c0-2.2,0.7-3.9,2.1-5.3c1.4-1.4,3.2-2.1,5.4-2.1
	c0.6,0,1.1,0,1.6,0.1c0.5,0.1,0.9,0.1,1.2,0.3V12c-0.1-0.1-0.5-0.2-0.9-0.3c-0.4-0.1-0.9-0.2-1.4-0.2c-1,0-1.8,0.3-2.3,0.9
	c-0.5,0.7-0.8,1.6-0.8,2.8v2.5h7.3V13l4.9-1.5v6.1h4.9v4h-4.9v9.7c0,1.3,0.2,2.2,0.7,2.7c0.5,0.5,1.2,0.8,2.2,0.8
	c0.3,0,0.6-0.1,1-0.2c0.4-0.1,0.7-0.3,1.1-0.5v4c-0.3,0.2-0.8,0.3-1.5,0.5c-0.7,0.1-1.4,0.2-2.1,0.2c-2.1,0-3.6-0.5-4.6-1.7
	c-1-1.1-1.5-2.7-1.5-4.9V21.7L215.3,21.7z"/>
<path id="blue" class="st1" d="M22.8,25.2H0V48h22.8V25.2z"/>
<path id="yellow" class="st2" d="M48,25.2H25.2V48H48V25.2z"/>
<path id="green" class="st3" d="M48,0H25.2v22.8H48V0z"/>
<path id="red" class="st4" d="M22.8,0H0v22.8h22.8V0z"/>
</svg>
